<svg width="26" height="23" viewBox="0 0 26 23" fill="none" xmlns="http://www.w3.org/2000/svg">
<path d="M24.2355 15.7597H7.95234L8.76991 14.1094L22.3543 14.085C22.8137 14.085 23.2074 13.7598 23.2894 13.31L25.1707 2.87427C25.2199 2.60057 25.1461 2.31875 24.9656 2.10467C24.8764 1.99931 24.7652 1.91444 24.6396 1.85595C24.514 1.79746 24.377 1.76674 24.2383 1.76594L6.95702 1.70903L6.80937 1.02072C6.7164 0.581727 6.31718 0.261963 5.86328 0.261963H1.63867C1.38267 0.261963 1.13716 0.362745 0.956142 0.542139C0.775125 0.721533 0.673431 0.964843 0.673431 1.21854C0.673431 1.47225 0.775125 1.71556 0.956142 1.89495C1.13716 2.07434 1.38267 2.17513 1.63867 2.17513H5.08124L5.72656 5.21559L7.31523 12.8384L5.26992 16.1472C5.1637 16.2893 5.09972 16.4579 5.08523 16.6342C5.07073 16.8104 5.10629 16.9872 5.18788 17.1444C5.35195 17.4669 5.68281 17.6701 6.04921 17.6701H7.7664C7.40032 18.152 7.20258 18.7389 7.20312 19.3421C7.20312 20.8759 8.46093 22.1224 10.0086 22.1224C11.5562 22.1224 12.8141 20.8759 12.8141 19.3421C12.8141 18.7378 12.6117 18.1498 12.2508 17.6701H16.6559C16.2898 18.152 16.092 18.7389 16.0926 19.3421C16.0926 20.8759 17.3504 22.1224 18.898 22.1224C20.4457 22.1224 21.7035 20.8759 21.7035 19.3421C21.7035 18.7378 21.5012 18.1498 21.1402 17.6701H24.2383C24.7687 17.6701 25.2035 17.242 25.2035 16.7135C25.2019 16.4601 25.0993 16.2176 24.9179 16.0389C24.7366 15.8602 24.4913 15.7598 24.2355 15.7597ZM7.35898 3.59509L23.1035 3.64658L21.5613 12.2043L9.19374 12.226L7.35898 3.59509ZM10.0086 20.1984C9.53281 20.1984 9.14452 19.8136 9.14452 19.3421C9.14452 18.8706 9.53281 18.4858 10.0086 18.4858C10.4844 18.4858 10.8726 18.8706 10.8726 19.3421C10.8726 19.5692 10.7816 19.787 10.6196 19.9476C10.4575 20.1082 10.2378 20.1984 10.0086 20.1984ZM18.898 20.1984C18.4223 20.1984 18.034 19.8136 18.034 19.3421C18.034 18.8706 18.4223 18.4858 18.898 18.4858C19.3738 18.4858 19.7621 18.8706 19.7621 19.3421C19.7621 19.5692 19.6711 19.787 19.509 19.9476C19.347 20.1082 19.1272 20.1984 18.898 20.1984Z" fill="black"/>
</svg>
