<svg width="18" height="18" viewBox="0 0 18 18" fill="none" xmlns="http://www.w3.org/2000/svg">
<path d="M0.666992 14.8334C0.666992 16.2501 1.75033 17.3334 3.16699 17.3334H14.8337C16.2503 17.3334 17.3337 16.2501 17.3337 14.8334V8.16675H0.666992V14.8334ZM14.8337 2.33341H13.167V1.50008C13.167 1.00008 12.8337 0.666748 12.3337 0.666748C11.8337 0.666748 11.5003 1.00008 11.5003 1.50008V2.33341H6.50033V1.50008C6.50033 1.00008 6.16699 0.666748 5.66699 0.666748C5.16699 0.666748 4.83366 1.00008 4.83366 1.50008V2.33341H3.16699C1.75033 2.33341 0.666992 3.41675 0.666992 4.83342V6.50008H17.3337V4.83342C17.3337 3.41675 16.2503 2.33341 14.8337 2.33341Z" fill="#9F9F9F"/>
</svg>
