<svg width="24" height="19" viewBox="0 0 24 19" fill="none" xmlns="http://www.w3.org/2000/svg">
<path d="M21.3333 9.61362V3.83258H23.6666V10.7698H21.3333M21.3333 15.3947H23.6666V13.0822H21.3333M9.66665 10.7698C12.7816 10.7698 19 12.3191 19 15.3947V18.8633H0.333313V15.3947C0.333313 12.3191 6.55165 10.7698 9.66665 10.7698ZM9.66665 0.363953C10.9043 0.363953 12.0913 0.85121 12.9665 1.71853C13.8416 2.58586 14.3333 3.7622 14.3333 4.98878C14.3333 6.21537 13.8416 7.39171 12.9665 8.25903C12.0913 9.12636 10.9043 9.61362 9.66665 9.61362C8.42897 9.61362 7.24198 9.12636 6.36682 8.25903C5.49164 7.39171 4.99998 6.21537 4.99998 4.98878C4.99998 3.7622 5.49164 2.58586 6.36682 1.71853C7.24198 0.85121 8.42897 0.363953 9.66665 0.363953ZM9.66665 12.9666C6.20165 12.9666 2.54998 14.6547 2.54998 15.3947V16.6665H16.7833V15.3947C16.7833 14.6547 13.1316 12.9666 9.66665 12.9666ZM9.66665 2.56075C9.01687 2.56075 8.3937 2.81656 7.93424 3.2719C7.47477 3.72725 7.21665 4.34483 7.21665 4.98878C7.21665 5.63274 7.47477 6.25032 7.93424 6.70567C8.3937 7.16101 9.01687 7.41682 9.66665 7.41682C10.3164 7.41682 10.9396 7.16101 11.3991 6.70567C11.8585 6.25032 12.1166 5.63274 12.1166 4.98878C12.1166 4.34483 11.8585 3.72725 11.3991 3.2719C10.9396 2.81656 10.3164 2.56075 9.66665 2.56075Z" fill="black"/>
</svg>
